<svg version="1.0" xmlns="http://www.w3.org/2000/svg" width="800.000000" height="800.000000" viewBox="150 150 500.000000 500.000000" preserveAspectRatio="xMidYMid meet">
  <metadata>
    <rdf:RDF xmlns:rdf="http://www.w3.org/1999/02/22-rdf-syntax-ns#" xmlns:rdfs="http://www.w3.org/2000/01/rdf-schema#" xmlns:dc="http://purl.org/dc/elements/1.1/">
      <rdf:Description dc:format="image/svg+xml" dc:Label="1" dc:ContentProducer="001191330110MACRLGPT8B00000" dc:ProduceID="306690302" dc:ReservedCode1="qFq0Ez20c/B20z8xfIuJ3RBTCpuB7IVPtWLFcSd3y8Q=" dc:ContentPropagator="001191330110MACRLGPT8B00000" dc:PropagateID="306690302" dc:ReservedCode2="qFq0Ez20c/B20z8xfIuJ3RBTCpuB7IVPtWLFcSd3y8Q="/>
    </rdf:RDF>
  </metadata>
  <g transform="translate(0.000000,800.000000) scale(0.100000,-0.100000)" fill="#000000" stroke="none">
    <path d="M4259 5660 c-331 -30 -655 -166 -865 -363 -37 -34 -121 -127 -188 -207 -66 -80 -147 -175 -179 -211 -32 -36 -86 -104 -120 -151 -133 -184 -268 -356 -333 -427 -140 -151 -303 -246 -524 -306 -74 -20 -152 -42 -172 -47 -27 -8 -41 -20 -53 -45 -16 -32 -15 -41 4 -137 24 -114 61 -234 97 -314 13 -29 24 -56 24 -59 0 -4 25 -51 56 -105 268 -473 702 -769 1239 -844 334 -46 686 50 989 269 97 70 146 120 281 290 168 211 369 443 470 542 275 272 581 410 867 392 98 -6 144 10 156 52 12 45 5 272 -13 366 -41 221 -144 458 -283 655 -84 119 -261 296 -377 379 -97 68 -289 166 -395 201 -211 68 -438 91 -681 70z m300 -956 c43 -36 58 -89 38 -137 -30 -70 -56 -77 -274 -77 l-193 0 0 -560 c0 -615 1 -603 -60 -635 -37 -19 -73 -19 -110 0 -63 32 -60 4 -60 627 l0 567 -204 3 -205 3 -30 29 c-56 54 -50 149 13 187 29 18 56 19 543 19 l511 0 31 -26z"/>
  </g>
</svg>